<svg width="20" height="21" viewBox="0 0 20 21" fill="none" xmlns="http://www.w3.org/2000/svg">
<path d="M3.54919 8.95554C3.32216 10.6922 3.18425 12.457 3.1402 14.245C5.55351 15.2525 7.84886 16.4863 9.99976 17.9196C12.1506 16.4863 14.446 15.2525 16.8593 14.245C16.8153 12.457 16.6774 10.6923 16.4503 8.95557M3.54919 8.95554C2.81944 8.71025 2.08083 8.48423 1.33398 8.27808C4.03847 6.38239 6.93926 4.74766 9.99979 3.41046C13.0603 4.74767 15.9611 6.3824 18.6656 8.27809C17.9187 8.48425 17.1801 8.71027 16.4503 8.95557M3.54919 8.95554C5.78856 9.70825 7.94459 10.6424 9.9998 11.7405C12.055 10.6424 14.211 9.70827 16.4503 8.95557M5.62476 13C5.96993 13 6.24976 12.7202 6.24976 12.375C6.24976 12.0298 5.96993 11.75 5.62476 11.75C5.27958 11.75 4.99976 12.0298 4.99976 12.375C4.99976 12.7202 5.27958 13 5.62476 13ZM5.62476 13V9.93706C7.03432 9.06124 8.49445 8.25912 9.99976 7.53608M4.16029 17.1605C5.1366 16.1842 5.62475 14.9046 5.62476 13.625V12.375" stroke="#212A3E" stroke-width="1.5" stroke-linecap="round" stroke-linejoin="round"/>
</svg>
