<svg width="21" height="20" viewBox="0 0 21 20" fill="none" xmlns="http://www.w3.org/2000/svg">
<path fill-rule="evenodd" clip-rule="evenodd" d="M3.5 10C3.5 9.58579 3.83579 9.25 4.25 9.25L14.8879 9.25L10.7302 5.29062C10.4316 5.00353 10.4223 4.52875 10.7094 4.23017C10.9965 3.93159 11.4713 3.92228 11.7698 4.20937L17.2698 9.45937C17.4169 9.60078 17.5 9.79599 17.5 10C17.5 10.204 17.4169 10.3992 17.2698 10.5406L11.7698 15.7906C11.4713 16.0777 10.9965 16.0684 10.7094 15.7698C10.4223 15.4713 10.4316 14.9965 10.7302 14.7094L14.8879 10.75L4.25 10.75C3.83579 10.75 3.5 10.4142 3.5 10Z" fill="#F6995C"/>
</svg>
