<svg width="20" height="21" viewBox="0 0 20 21" fill="none" xmlns="http://www.w3.org/2000/svg">
<path fill-rule="evenodd" clip-rule="evenodd" d="M5.75 2.5C6.16421 2.5 6.5 2.83579 6.5 3.25V4.5H13.5V3.25C13.5 2.83579 13.8358 2.5 14.25 2.5C14.6642 2.5 15 2.83579 15 3.25V4.5H15.25C16.7688 4.5 18 5.73122 18 7.25V15.75C18 17.2688 16.7688 18.5 15.25 18.5H4.75C3.23122 18.5 2 17.2688 2 15.75V7.25C2 5.73122 3.23122 4.5 4.75 4.5H5V3.25C5 2.83579 5.33579 2.5 5.75 2.5ZM4.75 8C4.05964 8 3.5 8.55964 3.5 9.25V15.75C3.5 16.4404 4.05964 17 4.75 17H15.25C15.9404 17 16.5 16.4404 16.5 15.75V9.25C16.5 8.55964 15.9404 8 15.25 8H4.75Z" fill="#F6995C"/>
</svg>
