<svg width="32" height="30" viewBox="0 0 32 30" fill="none" xmlns="http://www.w3.org/2000/svg">
<rect width="32" height="30" fill="#1E1E1E"/>
<rect width="1440" height="1024" transform="translate(-31 -24)" fill="#FAFCFD"/>
<rect width="239" height="1024" transform="translate(-31 -24)" fill="white"/>
<path d="M15.5938 7.96875C15.5938 11.7657 12.5157 14.8438 8.71875 14.8438H1.84375V7.96875C1.84375 4.17179 4.92179 1.09375 8.71875 1.09375C12.5157 1.09375 15.5938 4.17179 15.5938 7.96875Z" fill="#212A3E" stroke="white" stroke-width="0.3125"/>
<path d="M15.9063 22.0312C15.9063 18.2343 18.9843 15.1563 22.7812 15.1563H29.6562V22.0312C29.6562 25.8282 26.5782 28.9062 22.7812 28.9062C18.9843 28.9062 15.9063 25.8282 15.9063 22.0312Z" fill="#212A3E" stroke="white" stroke-width="0.3125"/>
<path d="M8.71875 28.9062C4.92179 28.9062 1.84375 25.8282 1.84375 22.0312C1.84375 18.2343 4.92179 15.1563 8.71875 15.1563C12.5157 15.1563 15.5938 18.2343 15.5938 22.0312V28.9062H8.71875Z" fill="#F6995C" stroke="white" stroke-width="0.3125"/>
<path d="M22.7812 1.09375C26.5782 1.09375 29.6562 4.17179 29.6562 7.96875C29.6562 11.7657 26.5782 14.8438 22.7812 14.8438C18.9843 14.8438 15.9063 11.7657 15.9063 7.96875V1.09375H22.7812Z" fill="#F6995C" stroke="white" stroke-width="0.3125"/>
</svg>
