<svg width="20" height="21" viewBox="0 0 20 21" fill="none" xmlns="http://www.w3.org/2000/svg">
<path d="M12.3807 15.2348C13.9595 15.0475 15.4819 14.6763 16.9259 14.1432C15.7286 12.8142 14.9998 11.0547 14.9998 9.125V8.54099C14.9999 8.52734 15 8.51368 15 8.5C15 5.73858 12.7614 3.5 10 3.5C7.23858 3.5 5 5.73858 5 8.5L4.99984 9.125C4.99984 11.0547 4.27106 12.8142 3.07373 14.1432C4.51784 14.6763 6.04036 15.0475 7.61928 15.2348M12.3807 15.2348C11.6 15.3274 10.8055 15.375 9.99984 15.375C9.19431 15.375 8.3999 15.3274 7.61928 15.2348M12.3807 15.2348C12.4582 15.4759 12.5 15.7331 12.5 16C12.5 17.3807 11.3807 18.5 10 18.5C8.61929 18.5 7.5 17.3807 7.5 16C7.5 15.7331 7.54183 15.476 7.61928 15.2348" stroke="#212A3E" stroke-linecap="round" stroke-linejoin="round"/>
<circle cx="15" cy="4" r="4" fill="#FB4E4E"/>
</svg>
